<svg width="200" height="200" xmlns="http://www.w3.org/2000/svg">
 <!-- Created with Method Draw - http://github.com/duopixel/Method-Draw/ -->

 <g id="Layer_1">
  <title>Layer 1</title>
  <g stroke="null" id="svg_44">
   <path stroke="null" id="svg_4" fill="#ddb44e" d="m103.98461,122.85633c-2.40483,2.83218 -6.98598,2.59928 -9.03706,-0.66685l-6.9717,-11.11561l-8.99971,-0.84372l4.21862,12.07469c2.89151,7.95275 2.04889,16.78438 -2.29497,24.04721l-2.13458,3.56934l13.42926,7.03103l16.60201,-34.28174l-4.81186,0.18566zm0,0"/>
   <path stroke="null" id="svg_5" fill="#edd183" d="m116.80305,122.30483c-2.89041,7.95385 -2.04669,16.78438 2.29497,24.04611l2.13457,3.56934l-14.69484,6.96071l-16.00767,-6.96071c0.43285,-2.91678 1.18319,-5.76874 2.23785,-8.50205c1.05465,-2.73661 2.40813,-5.35456 4.04504,-7.80663l7.17165,-10.75527c0.0022,-0.0022 0.0022,-0.00549 0.00549,-0.00549c0.1571,-0.18896 0.30871,-0.3911 0.44713,-0.60423l1.54683,-2.38835l6.82559,-10.53555s2.00275,-3.46498 5.98516,-2.52458c3.98461,0.936 2.53117,4.02965 2.53117,4.02965l-1.15023,2.48613l-3.3727,8.99092zm0,0"/>
   <path stroke="null" id="svg_6" fill="#96bc5e" d="m127.70113,162.57613l0,-9.84344c0,-1.55342 -1.25899,-2.81241 -2.81241,-2.81241l-49.77856,0c-1.55342,0 -2.81241,1.25899 -2.81241,2.81241l0,9.84344l55.40338,0zm0,0"/>
   <path stroke="null" id="svg_7" fill="#85993d" d="m127.70113,152.73269l0,9.84344l-8.43723,0l0,-9.84344c0,-1.55232 -1.26009,-2.81241 -2.81241,-2.81241l8.43723,0c1.55232,0 2.81241,1.26009 2.81241,2.81241zm0,0"/>
   <path stroke="null" id="svg_8" fill="#96bc5e" d="m92.71739,57.98523c-0.72837,-4.63938 -4.74265,-8.18675 -9.58526,-8.18675c-0.468,0 -0.92612,0.03516 -1.37654,0.09887c-1.11288,-4.58445 -5.24251,-7.989 -10.16972,-7.989c-5.30732,0 -9.68963,3.95056 -10.37296,9.07112c-1.37874,-0.75254 -2.96072,-1.18099 -4.64158,-1.18099c-5.35896,0 -9.70281,4.34385 -9.70281,9.70281c0,1.4128 0.30321,2.75309 0.84592,3.96264c-5.57538,0.36144 -9.98625,4.99532 -9.98625,10.66189c0,4.45372 2.72452,8.26914 6.59708,9.87529c-3.42872,1.62153 -5.8006,5.11068 -5.8006,9.15571c0,4.94589 3.54737,9.06013 8.23509,9.9456c-0.35265,0.93051 -0.5482,1.93793 -0.5482,2.99148c0,4.65915 3.77808,8.43723 8.43723,8.43723c2.72562,0 5.14693,-1.29305 6.68936,-3.29799c0.92502,3.93188 4.45372,6.86074 8.66794,6.86074c4.20433,0 7.72644,-2.91568 8.66025,-6.83438c1.54353,1.98956 3.95605,3.27162 6.66849,3.27162c4.66025,0 8.43723,-3.77698 8.43723,-8.43723c0,-1.05356 -0.19445,-2.06097 -0.5471,-2.99148c4.68771,-0.88547 8.23509,-4.99972 8.23509,-9.9456c-3.12551,-12.42184 7.75171,-27.1057 -8.74264,-35.1716zm0,0"/>
   <path stroke="null" id="svg_9" fill="#85993d" d="m101.45893,93.15794c0,4.71298 -3.22329,8.67343 -7.58472,9.7951c-0.50645,-1.19527 -0.78769,-2.5092 -0.78769,-3.88903c0,-2.59599 0.98984,-4.95907 2.60917,-6.73331c-0.40978,0.04724 -0.82615,0.0758 -1.2513,0.0758c-5.90277,0 -10.68716,-4.78439 -10.68716,-10.68716c0,-4.04174 2.24444,-7.55945 5.55451,-9.37323c-3.31007,-1.81708 -5.55451,-5.33589 -5.55451,-9.37763c0,-4.468 2.74759,-8.29661 6.64652,-9.89068c1.19747,1.35237 2.02142,3.03982 2.31365,4.90744c0.19116,0.09338 0.38341,0.18896 0.56578,0.28453c-0.69761,1.41719 -1.08871,3.01126 -1.08871,4.6987c0,4.04174 2.24444,7.56055 5.55451,9.37763c-3.31007,1.81378 -5.55451,5.33149 -5.55451,9.37323c0,5.35237 3.93518,9.78411 9.06783,10.56302c0.05823,0.29333 0.12304,0.58556 0.19665,0.87558zm0,0"/>
   <path stroke="null" id="svg_10" fill="#9e7f56" d="m130.59814,156.95131c2.69816,0 4.7031,2.49931 4.11755,5.13375l-0.9371,4.21862c-0.42955,1.93024 -2.14117,3.30348 -4.11864,3.30348l-59.32208,0c-1.97748,0 -3.68909,-1.37325 -4.11864,-3.30348l-0.9371,-4.21862c-0.58555,-2.63444 1.41939,-5.13375 4.11754,-5.13375l61.19848,0zm0,0"/>
   <path stroke="null" id="svg_11" fill="#87613c" d="m134.71568,162.08396l-0.9371,4.21862c-0.42955,1.93243 -2.14007,3.30458 -4.11645,3.30458l-8.43723,0c1.97638,0 3.68689,-1.37215 4.11645,-3.30458l0.82724,-3.72644l0.10986,-0.49217c0.58445,-2.63224 -1.42049,-5.13265 -4.11755,-5.13265l8.43723,0c2.69706,0 4.702,2.50041 4.11755,5.13265zm0,0"/>
   <path stroke="null" id="svg_12" fill="#ddb44e" d="m116.80305,122.30483c-2.89041,7.95385 -2.04669,16.78438 2.29497,24.04611l2.13457,3.56934l-8.43723,0l-2.13457,-3.56934c-4.34166,-7.26173 -5.18538,-16.09226 -2.29497,-24.04611l3.3727,-8.99092l1.15023,-2.48613s0.42736,-0.90524 0.18237,-1.88739c0.66136,-0.87448 2.57402,-2.88492 5.72369,-2.14226c3.98461,0.936 2.53117,4.02965 2.53117,4.02965l-1.15023,2.48613l-3.3727,8.99092zm0,0"/>
   <path stroke="null" id="svg_13" fill="#92d37a" d="m156.7173,72.345c3.30897,-1.81598 5.55341,-5.33369 5.55341,-9.37433c0,-4.51963 -2.80582,-8.3801 -6.76956,-9.94341c1.07992,-1.70832 1.70722,-3.72974 1.70722,-5.90057c0,-6.1093 -4.95248,-11.06178 -11.06288,-11.06178c-3.20571,0 -6.09282,1.36556 -8.11314,3.54627c-0.52733,-5.48859 -5.15023,-9.78081 -10.77615,-9.78081c-0.00769,0 -0.01538,0.0011 -0.02307,0.0011s-0.01538,-0.0011 -0.02417,-0.0011c-5.62592,0 -10.24882,4.29222 -10.77614,9.77972c-2.02032,-2.17962 -4.90634,-3.54627 -8.11315,-3.54627c-6.1093,0 -11.06178,4.95358 -11.06178,11.06288c0,2.16973 0.6273,4.19225 1.70612,5.90057c-3.96264,1.56221 -6.76846,5.42378 -6.76846,9.94231c0,4.04174 2.24334,7.55835 5.55341,9.37433c-3.31007,1.81598 -5.55341,5.33369 -5.55341,9.37433c0,5.90277 4.78439,10.68716 10.68716,10.68716c0.42406,0 0.84043,-0.02746 1.2513,-0.0747c-1.62153,1.77533 -2.61137,4.13732 -2.61137,6.73111c0,5.51386 4.47019,9.98406 9.98406,9.98406c2.00604,0 3.87256,-0.59324 5.43696,-1.61164c1.00302,4.64487 5.13265,8.12743 10.07854,8.12743c5.03487,0 9.22492,-3.60889 10.12907,-8.3812c1.63581,1.1733 3.64075,1.86542 5.80719,1.86542c5.51386,0 9.98406,-4.47019 9.98406,-9.98406c0,-2.59379 -0.98984,-4.95577 -2.61136,-6.73111c0.41087,0.04834 0.82834,0.0747 1.2524,0.0747c5.90167,0 10.68716,-4.78439 10.68716,-10.68716c0,-4.04064 -2.24444,-7.55725 -5.55341,-9.37323zm0,0"/>
   <g stroke="null" transform="matrix(0.28124100983005695,0,0,0.28124100983005695,-1512.415405797034,-1580.634023502051) " id="svg_14" fill="#70ba4d">
    <path stroke="null" id="svg_15" d="m5863.70422,6007.09883c-5.15234,14.00782 -18.60156,24.00782 -34.41016,24.00782c-5.33984,0 -10.42187,-1.13672 -15,-3.20704c10.75782,-4.82031 18.75782,-14.67968 21.01954,-26.58984c5.82031,4.16797 12.9375,6.64063 20.64843,6.64063c2.66016,0 5.25,-0.29297 7.74219,-0.85157zm0,0"/>
    <path stroke="null" id="svg_16" d="m5865.03235,5748.5168c-10.48829,0.58985 -19.87891,5.30078 -26.58985,12.53125c-1.3789,-14.34765 -10.64062,-26.41015 -23.39844,-31.76953c4.58985,-1.92969 9.62891,-3 14.91797,-3l0.17188,0c15.44922,0 28.76953,9.10156 34.89844,22.23828zm0,0"/>
    <path stroke="null" id="svg_17" d="m5954.63391,5910.77852c0,20.98828 -17.01953,38 -38,38c-1.51172,0 -2.99219,-0.10156 -4.44922,-0.26953c5.75781,6.30859 9.27734,14.71094 9.27734,23.94141c0,19.59765 -15.89062,35.5 -35.5,35.5c-5.35937,0 -10.4375,-1.19141 -14.98828,-3.32032c12.10938,-5.66015 20.48828,-17.9414 20.48828,-32.17968c0,-9.23047 -3.51953,-17.63282 -9.27734,-23.94141c1.45703,0.16797 2.9375,0.26953 4.44922,0.26953c20.98047,0 38,-17.01172 38,-38c0,-14.37109 -7.98047,-26.87891 -19.75,-33.32812c11.76953,-6.46094 19.75,-18.97266 19.75,-33.34375c0,-16.0586 -9.98047,-29.78907 -24.07031,-35.34766c3.83984,-6.07031 6.07031,-13.26172 6.07031,-20.98047c0,-16.41016 -10.05078,-30.48047 -24.35156,-36.37109c4.62109,-1.91016 9.6914,-2.95703 15.01171,-2.95703c21.73047,0 39.33985,17.60937 39.33985,39.32812c0,7.71875 -2.23047,14.91016 -6.07032,20.98047c14.08985,5.55859 24.07032,19.28906 24.07032,35.34766c0,14.37109 -7.98047,26.88281 -19.75,33.34375c11.76953,6.44921 19.75,18.95703 19.75,33.32812zm0,0"/>
   </g>
   <path stroke="null" id="svg_18" d="m160.29433,72.62624c2.57182,-2.39165 4.08568,-5.77313 4.08568,-9.37543c0,-4.50645 -2.30925,-8.56577 -6.03679,-10.86953c0.64158,-1.57099 0.97446,-3.25734 0.97446,-4.97335c0,-7.26283 -5.90826,-13.17109 -13.17109,-13.17109c-2.4323,0 -4.80527,0.68223 -6.85415,1.92914c-1.89728,-4.83383 -6.5806,-8.16368 -12.03514,-8.16368c-0.01428,0 -0.03296,0 -0.04724,0c-5.45564,0 -10.13786,3.32985 -12.03624,8.16368c-2.04779,-1.24801 -4.42185,-1.92914 -6.85415,-1.92914c-7.26283,0 -13.17109,5.90826 -13.17109,13.17109c0,1.71601 0.33287,3.40236 0.97446,4.97335c-0.91403,0.56578 -1.74238,1.23812 -2.47294,1.99505c-1.94891,-3.82202 -5.8786,-6.35758 -10.38944,-6.40482c-1.8841,-4.72287 -6.45975,-7.89123 -11.6737,-7.89123c-5.37434,0 -10.07524,3.43641 -11.83629,8.32627c-1.03158,-0.28783 -2.10272,-0.43614 -3.17934,-0.43614c-6.51359,0 -11.81212,5.29854 -11.81212,11.81212c0,0.77891 0.07471,1.54573 0.22412,2.29827c-5.41829,1.50837 -9.36445,6.4982 -9.36445,12.32626c0,3.96374 1.8061,7.60559 4.79428,9.99174c-2.49821,2.28728 -3.9967,5.5644 -3.9967,9.03926c0,5.11397 3.17165,9.60614 7.79785,11.40344c-0.07361,0.50536 -0.11096,1.0173 -0.11096,1.53364c0,5.81488 4.73056,10.54654 10.54654,10.54654c2.14227,0 4.17906,-0.63389 5.89617,-1.79621c1.94012,3.26503 5.482,5.35786 9.46003,5.35786c3.52101,0 6.70035,-1.6457 8.73166,-4.29003l2.46525,7.08596c0.0033,0.00879 0.00659,0.01758 0.00989,0.02746c2.68717,7.38917 1.91266,15.49682 -2.12249,22.24441l-1.52046,2.54216l-2.45976,0c-2.71354,0 -4.92172,2.20708 -4.92172,4.92062l0,2.10931l-0.78769,0c-1.92914,0 -3.72864,0.8635 -4.936,2.36858c-1.20736,1.50508 -1.65998,3.4485 -1.24142,5.33259l0.9382,4.21862c0.64817,2.91678 3.18813,4.95468 6.17742,4.95468l44.70743,0c1.16451,0 2.10931,-0.9437 2.10931,-2.10931s-0.9448,-2.10931 -2.10931,-2.10931l-44.70743,0c-0.99643,0 -1.84344,-0.67893 -2.05877,-1.65119l-0.9382,-4.21862c-0.13952,-0.6284 0.01208,-1.27547 0.41417,-1.77753c0.40209,-0.50206 1.00192,-0.78989 1.6446,-0.78989l2.897,0c1.16561,0 2.10931,-0.9437 2.10931,-2.10931l0,-4.21862c0,-0.38781 0.3153,-0.702 0.7031,-0.702l3.64954,0l0.0044,0l0.00439,0l46.12023,0c0.38781,0 0.7031,0.3142 0.7031,0.702l0,2.10931l-43.45064,0c-1.16451,0 -2.10931,0.94479 -2.10931,2.10931c0,1.16561 0.94479,2.10931 2.10931,2.10931l48.45695,0c0.64378,0 1.24361,0.28783 1.6457,0.78989c0.40208,0.50206 0.55259,1.14913 0.41307,1.77753l-0.9371,4.21862c-0.21643,0.97226 -1.06235,1.65119 -2.05877,1.65119l-4.77231,0c-1.16451,0 -2.10931,0.9437 -2.10931,2.10931s0.9448,2.10931 2.10931,2.10931l4.77231,0c2.98819,0 5.52814,-2.0379 6.17742,-4.95468l0.9371,-4.21862c0.41857,-1.8841 -0.03406,-3.82751 -1.24141,-5.33259c-1.20626,-1.50508 -3.00576,-2.36858 -4.936,-2.36858l-0.78769,0l0,-2.10931c0,-2.71354 -2.20708,-4.92062 -4.92172,-4.92062l-2.45866,0l-1.52046,-2.54216c-4.03625,-6.74758 -4.80966,-14.85524 -2.13018,-22.22463l2.54325,-6.77615c1.7237,0.89755 3.66822,1.40181 5.70062,1.40181c5.00082,0 9.41937,-2.99038 11.36719,-7.40894c1.43806,0.58885 2.98269,0.89426 4.56907,0.89426c6.66849,0 12.09336,-5.42487 12.09336,-12.09336c0,-1.66548 -0.33947,-3.2914 -0.98654,-4.78879c5.872,-1.15902 10.31473,-6.3477 10.31473,-12.55477c0,-3.6023 -1.51497,-6.98379 -4.08678,-9.37433zm-79.96033,37.62148c-0.49766,-0.64158 -1.31942,-0.9393 -2.1126,-0.76902c-0.79319,0.17138 -1.41829,0.7833 -1.60615,1.57319c-0.73167,3.06948 -3.4496,5.21284 -6.60916,5.21284c-3.16945,0 -5.88958,-2.15215 -6.61356,-5.23372c-0.18676,-0.79209 -0.81296,-1.4073 -1.60835,-1.57868c-0.79648,-0.17248 -1.62043,0.13073 -2.117,0.77561c-1.21065,1.57319 -3.03872,2.47514 -5.01729,2.47514c-3.48915,0 -6.32792,-2.83878 -6.32792,-6.32792c0,-0.77012 0.13842,-1.52486 0.41088,-2.24334c0.22082,-0.58336 0.17248,-1.23483 -0.13293,-1.77973c-0.30431,-0.5438 -0.83493,-0.92502 -1.44795,-1.04147c-3.77698,-0.71299 -6.51688,-4.02417 -6.51688,-7.87255c0,-3.08376 1.8028,-5.92913 4.59324,-7.24855c0.75364,-0.35704 1.22713,-1.12496 1.20626,-1.9588c-0.01977,-0.83384 -0.53062,-1.57759 -1.30074,-1.89618c-3.21669,-1.3348 -5.29524,-4.44602 -5.29524,-7.92748c0,-4.50645 3.51991,-8.26585 8.01317,-8.55698c0.68992,-0.04504 1.31392,-0.42406 1.67097,-1.0162c0.35595,-0.59104 0.39989,-1.32051 0.11755,-1.95111c-0.43944,-0.97995 -0.66136,-2.02252 -0.66136,-3.09914c0,-4.18786 3.40565,-7.59351 7.59351,-7.59351c1.26888,0 2.52458,0.31859 3.63086,0.92282c0.60972,0.33287 1.34468,0.34386 1.96429,0.02966c0.62071,-0.3142 1.04587,-0.91403 1.13705,-1.60285c0.55149,-4.12743 4.11205,-7.24086 8.28233,-7.24086c3.86926,0 7.2079,2.62345 8.12083,6.37846c0.25597,1.05465 1.26998,1.74238 2.34551,1.58967c0.36473,-0.05163 0.72837,-0.0769 1.07992,-0.0769c3.7638,0 6.91897,2.69266 7.50123,6.40373c0.02746,0.17358 0.0769,0.33727 0.14172,0.49217c-0.44823,1.31392 -0.68992,2.71573 -0.68992,4.16588c0,3.6023 1.51387,6.98269 4.08678,9.37433c-2.57292,2.39165 -4.08678,5.77203 -4.08678,9.37433c0,5.81488 3.89782,10.7355 9.21833,12.28782c-0.36913,3.47706 -2.9761,6.36308 -6.47074,7.02224c-0.61302,0.11645 -1.14364,0.49766 -1.44795,1.04257c-0.30541,0.5438 -0.35375,1.19527 -0.13183,1.77863c0.27136,0.71848 0.40978,1.47212 0.40978,2.24334c0,3.48915 -2.83878,6.32792 -6.32792,6.32792c-1.96869,0 -3.79126,-0.89536 -5.00191,-2.45537zm15.4364,-5.4062c1.51167,-0.58665 2.86624,-1.46333 4.00768,-2.55314c1.13815,4.53281 4.84152,8.05492 9.46991,8.9338l-5.02828,7.76049l-1.89508,2.84207c-0.66575,0.75254 -1.59956,1.1733 -2.63553,1.17001c-1.22603,-0.00769 -2.30376,-0.60643 -2.95633,-1.6457l-4.43724,-7.06069c2.1972,-1.93353 3.58692,-4.76352 3.58692,-7.9143c0,-0.51524 -0.03735,-1.02719 -0.11205,-1.53254zm-13.28534,43.25179l0.22521,-0.37792c4.68772,-7.8363 5.58857,-17.25348 2.47294,-25.83572l-1.78962,-5.14254c0.63389,0.11755 1.28207,0.18456 1.94232,0.18456c1.15133,0 2.25982,-0.18896 3.29799,-0.53172l4.52732,7.2046c1.2535,1.99505 3.30788,3.28261 5.60944,3.56056l-3.71216,5.5655c-3.08486,4.6262 -5.24361,9.90715 -6.30266,15.37158l-6.27079,0l0,0.0011zm32.33722,-26.22902c-3.12331,8.58774 -2.22356,18.01041 2.46635,25.8511l0.22521,0.37792l-24.45259,0c1.00192,-4.63279 2.88162,-9.09639 5.50617,-13.03157l7.12441,-10.68277c0.18237,-0.22411 0.35594,-0.45702 0.51414,-0.7042l8.1516,-12.58004c0.46141,-0.11206 0.91733,-0.24828 1.36336,-0.41417c0.53721,1.1711 1.2524,2.23894 2.10491,3.17605l-3.00357,8.00768zm40.88102,-47.38911c2.74979,1.50947 4.45811,4.39219 4.45811,7.52539c0,4.72946 -3.84839,8.57785 -8.57785,8.57785c-0.32409,0 -0.65367,-0.01977 -1.00851,-0.06152c-0.87339,-0.09778 -1.71931,0.35045 -2.12029,1.13375c-0.40209,0.7844 -0.27355,1.73469 0.31969,2.38396c1.32821,1.45454 2.05987,3.33974 2.05987,5.30952c0,4.34166 -3.53309,7.87475 -7.87475,7.87475c-1.65339,0 -3.23647,-0.50865 -4.58005,-1.47102c-0.58445,-0.41967 -1.34248,-0.51195 -2.01263,-0.24389c-0.66795,0.26806 -1.15353,0.858 -1.28756,1.5655c-0.73277,3.86157 -4.12084,6.66409 -8.05712,6.66409c-3.8363,0 -7.2079,-2.71793 -8.01647,-6.46305c-0.14611,-0.67783 -0.61631,-1.24032 -1.25789,-1.50508c-0.25817,-0.10657 -0.53172,-0.1593 -0.80308,-0.1593c-0.40319,0 -0.80308,0.11535 -1.15133,0.34167c-1.27657,0.83164 -2.75968,1.27108 -4.28563,1.27108c-4.34276,0 -7.87475,-3.53309 -7.87475,-7.87475c0,-1.96979 0.73057,-3.85498 2.05877,-5.30842c0.59324,-0.65037 0.72178,-1.60066 0.32079,-2.38396c-0.40208,-0.7844 -1.24691,-1.23263 -2.12139,-1.13485c-0.35375,0.04175 -0.68443,0.06152 -1.00851,0.06152c-4.72946,0 -8.57785,-3.84839 -8.57785,-8.57785c0,-3.1321 1.70832,-6.01592 4.45921,-7.52539c0.67454,-0.37023 1.0942,-1.07882 1.0942,-1.84894s-0.41967,-1.47871 -1.0942,-1.84894c-2.75089,-1.50947 -4.45921,-4.39329 -4.45921,-7.52539c0,-3.54627 2.13238,-6.67947 5.43366,-7.98131c0.58446,-0.22961 1.03598,-0.70969 1.23153,-1.30623c0.19445,-0.59764 0.11315,-1.2513 -0.22302,-1.78193c-0.90305,-1.42928 -1.37984,-3.08047 -1.37984,-4.7745c0,-4.936 4.01647,-8.95247 8.95247,-8.95247c2.51908,0 4.85141,1.0195 6.56742,2.87064c0.56468,0.60862 1.43477,0.82944 2.22137,0.56468c0.78769,-0.26696 1.34468,-0.97006 1.42488,-1.7973c0.42955,-4.48008 4.14721,-7.85937 8.65145,-7.87255c0.02857,0.0011 0.05713,0.0011 0.09338,0c4.50645,0.01099 8.2252,3.39247 8.65475,7.87255c0.0791,0.82724 0.63719,1.53034 1.42378,1.7973c0.78879,0.26476 1.65888,0.04394 2.22246,-0.56468c1.71601,-1.85114 4.04833,-2.87064 6.56742,-2.87064c4.936,0 8.95247,4.01647 8.95247,8.95247c0,1.69404 -0.47679,3.34523 -1.38094,4.7745c-0.33507,0.53062 -0.41637,1.18429 -0.22192,1.78193c0.19555,0.59654 0.64707,1.07662 1.23153,1.30623c3.30019,1.30184 5.43366,4.43504 5.43366,7.98131c0,3.1321 -1.70832,6.01592 -4.45921,7.52539c-0.67454,0.37023 -1.0942,1.07882 -1.0942,1.84894s0.41966,1.47871 1.0953,1.84894zm0,0"/>
   <path stroke="null" id="svg_19" d="m102.55423,58.93882c-2.32573,0 -4.21862,1.89288 -4.21862,4.21862s1.89288,4.21862 4.21862,4.21862s4.21862,-1.89288 4.21862,-4.21862s-1.89178,-4.21862 -4.21862,-4.21862zm0,0"/>
   <path stroke="null" id="svg_20" d="m152.05265,58.93882c-2.32573,0 -4.21862,1.89288 -4.21862,4.21862s1.89288,4.21862 4.21862,4.21862s4.21862,-1.89288 4.21862,-4.21862s-1.89178,-4.21862 -4.21862,-4.21862zm0,0"/>
   <path stroke="null" id="svg_21" d="m127.30344,35.87705c-2.32573,0 -4.21862,1.89288 -4.21862,4.21862s1.89288,4.21862 4.21862,4.21862s4.21862,-1.89288 4.21862,-4.21862s-1.89178,-4.21862 -4.21862,-4.21862zm0,0"/>
   <path stroke="null" id="svg_22" d="m107.89781,51.06407c2.32573,0 4.21862,-1.89288 4.21862,-4.21862s-1.89288,-4.21862 -4.21862,-4.21862s-4.21862,1.89288 -4.21862,4.21862s1.89288,4.21862 4.21862,4.21862zm0,0"/>
   <path stroke="null" id="svg_23" d="m146.42783,51.34531c2.32573,0 4.21862,-1.89288 4.21862,-4.21862s-1.89288,-4.21862 -4.21862,-4.21862s-4.21862,1.89288 -4.21862,4.21862s1.89288,4.21862 4.21862,4.21862zm0,0"/>
   <path stroke="null" id="svg_24" d="m148.11528,82.28182c0,2.32573 1.89288,4.21862 4.21862,4.21862s4.21862,-1.89288 4.21862,-4.21862s-1.89288,-4.21862 -4.21862,-4.21862s-4.21862,1.89288 -4.21862,4.21862zm0,0"/>
   <path stroke="null" id="svg_25" d="m142.49046,94.65642c-2.32573,0 -4.21862,1.89288 -4.21862,4.21862s1.89288,4.21862 4.21862,4.21862s4.21862,-1.89288 4.21862,-4.21862s-1.89178,-4.21862 -4.21862,-4.21862zm0,0"/>
   <path stroke="null" id="svg_26" d="m127.30344,101.68745c-2.32573,0 -4.21862,1.89288 -4.21862,4.21862s1.89288,4.21862 4.21862,4.21862s4.21862,-1.89288 4.21862,-4.21862s-1.89178,-4.21862 -4.21862,-4.21862zm0,0"/>
   <path stroke="null" id="svg_27" d="m102.55423,78.0632c-2.32573,0 -4.21862,1.89288 -4.21862,4.21862s1.89288,4.21862 4.21862,4.21862s4.21862,-1.89288 4.21862,-4.21862s-1.89178,-4.21862 -4.21862,-4.21862zm0,0"/>
   <path stroke="null" id="svg_28" d="m111.83519,94.65642c-2.32573,0 -4.21862,1.89288 -4.21862,4.21862s1.89288,4.21862 4.21862,4.21862s4.21862,-1.89288 4.21862,-4.21862s-1.89178,-4.21862 -4.21862,-4.21862zm0,0"/>
   <path stroke="null" id="svg_29" d="m120.27242,66.81356c2.32573,0 4.21862,-1.89288 4.21862,-4.21862s-1.89288,-4.21862 -4.21862,-4.21862s-4.21862,1.89288 -4.21862,4.21862s1.89288,4.21862 4.21862,4.21862zm0,0"/>
   <path stroke="null" id="svg_30" d="m136.86564,64.56364c2.32573,0 4.21862,-1.89288 4.21862,-4.21862s-1.89288,-4.21862 -4.21862,-4.21862s-4.21862,1.89288 -4.21862,4.21862s1.89288,4.21862 4.21862,4.21862zm0,0"/>
   <path stroke="null" id="svg_31" d="m141.36549,82.28182c0,-2.32573 -1.89288,-4.21862 -4.21862,-4.21862s-4.21862,1.89288 -4.21862,4.21862s1.89288,4.21862 4.21862,4.21862s4.21862,-1.89288 4.21862,-4.21862zm0,0"/>
   <path stroke="null" id="svg_32" d="m119.14745,80.03189c-2.32573,0 -4.21862,1.89288 -4.21862,4.21862s1.89288,4.21862 4.21862,4.21862s4.21862,-1.89288 4.21862,-4.21862s-1.89178,-4.21862 -4.21862,-4.21862zm0,0"/>
   <path stroke="null" id="svg_33" d="m71.05524,56.68889c2.32573,0 4.21862,-1.89288 4.21862,-4.21862s-1.89288,-4.21862 -4.21862,-4.21862s-4.21862,1.89288 -4.21862,4.21862s1.89288,4.21862 4.21862,4.21862zm0,0"/>
   <path stroke="null" id="svg_34" d="m51.93085,74.12583c0,-2.32573 -1.89288,-4.21862 -4.21862,-4.21862s-4.21862,1.89288 -4.21862,4.21862s1.89288,4.21862 4.21862,4.21862s4.21862,-1.89288 4.21862,-4.21862zm0,0"/>
   <path stroke="null" id="svg_35" d="m56.99319,64.00115c2.32573,0 4.21862,-1.89288 4.21862,-4.21862s-1.89288,-4.21862 -4.21862,-4.21862s-4.21862,1.89288 -4.21862,4.21862s1.89288,4.21862 4.21862,4.21862zm0,0"/>
   <path stroke="null" id="svg_36" d="m48.55596,89.0316c-2.32573,0 -4.21862,1.89288 -4.21862,4.21862s1.89288,4.21862 4.21862,4.21862s4.21862,-1.89288 4.21862,-4.21862s-1.89288,-4.21862 -4.21862,-4.21862zm0,0"/>
   <path stroke="null" id="svg_37" d="m70.21152,103.93738c-2.32573,0 -4.21862,1.89288 -4.21862,4.21862s1.89288,4.21862 4.21862,4.21862s4.21862,-1.89288 4.21862,-4.21862s-1.89288,-4.21862 -4.21862,-4.21862zm0,0"/>
   <path stroke="null" id="svg_38" d="m55.86823,100.28124c-2.32573,0 -4.21862,1.89288 -4.21862,4.21862s1.89288,4.21862 4.21862,4.21862s4.21862,-1.89288 4.21862,-4.21862s-1.89288,-4.21862 -4.21862,-4.21862zm0,0"/>
   <path stroke="null" id="svg_39" d="m89.05467,104.7811c0,-2.32573 -1.89288,-4.21862 -4.21862,-4.21862s-4.21862,1.89288 -4.21862,4.21862s1.89288,4.21862 4.21862,4.21862s4.21862,-1.89288 4.21862,-4.21862zm0,0"/>
   <path stroke="null" id="svg_40" d="m82.30488,64.56364c2.32573,0 4.21862,-1.89288 4.21862,-4.21862s-1.89288,-4.21862 -4.21862,-4.21862s-4.21862,1.89288 -4.21862,4.21862s1.89288,4.21862 4.21862,4.21862zm0,0"/>
   <path stroke="null" id="svg_41" d="m60.64383,81.84348c-2.32573,0 -4.21862,1.89288 -4.21862,4.21862c0,2.32683 1.89288,4.21862 4.21862,4.21862s4.21862,-1.89179 4.21862,-4.21862c0,-2.32573 -1.89288,-4.21862 -4.21862,-4.21862zm0,0"/>
   <path stroke="null" id="svg_42" d="m83.42985,88.60974c0,-2.32573 -1.89288,-4.21862 -4.21862,-4.21862s-4.21862,1.89288 -4.21862,4.21862s1.89288,4.21862 4.21862,4.21862s4.21862,-1.89288 4.21862,-4.21862zm0,0"/>
   <path stroke="null" id="svg_43" d="m76.2571,72.01652c0,-2.32573 -1.89178,-4.21862 -4.21862,-4.21862c-2.32573,0 -4.21862,1.89288 -4.21862,4.21862s1.89288,4.21862 4.21862,4.21862c2.32683,0 4.21862,-1.89288 4.21862,-4.21862zm0,0"/>
  </g>
 </g>
</svg>