<svg width="338" height="112" viewBox="0 0 338 112" fill="none" xmlns="http://www.w3.org/2000/svg">
<path d="M98.1916 77.1904C96.5323 79.1966 93.3714 79.0316 91.9562 76.718L87.1458 68.8442L80.9362 68.2466L83.847 76.7998C85.8421 82.4331 85.2607 88.6891 82.2635 93.8337L80.7906 96.3621L90.0566 101.343L101.512 77.0589L98.1916 77.1904Z" fill="#DDB44E"/>
<path d="M107.036 76.7997C105.042 82.4339 105.624 88.689 108.62 93.8329L110.092 96.3613L99.9532 101.292L88.9082 96.3613C89.2069 94.2952 89.7246 92.275 90.4523 90.3388C91.18 88.4003 92.1138 86.5459 93.2433 84.8089L98.1916 77.1904C98.1931 77.1888 98.1931 77.1865 98.1954 77.1865C98.3038 77.0526 98.4084 76.9094 98.5039 76.7585L99.5712 75.0667L104.281 67.6037C104.281 67.6037 105.663 65.1493 108.41 65.8154C111.16 66.4785 110.157 68.6699 110.157 68.6699L109.363 70.4309L107.036 76.7997Z" fill="#EDD183"/>
<path d="M114.556 105.326V98.3535C114.556 97.2531 113.687 96.3613 112.615 96.3613H78.2688C77.1969 96.3613 76.3282 97.2531 76.3282 98.3535V105.326H114.556Z" fill="#96BC5E"/>
<path d="M114.556 98.3535V105.326H108.734V98.3535C108.734 97.2539 107.865 96.3613 106.794 96.3613H112.615C113.686 96.3613 114.556 97.2539 114.556 98.3535Z" fill="#85993D"/>
<path d="M90.4174 31.2386C89.9149 27.9523 87.1451 25.4395 83.8037 25.4395C83.4808 25.4395 83.1647 25.4644 82.854 25.5095C82.0861 22.2621 79.2367 19.8505 75.837 19.8505C72.175 19.8505 69.1513 22.6489 68.6798 26.276C67.7285 25.743 66.637 25.4395 65.4772 25.4395C61.7796 25.4395 58.7824 28.5165 58.7824 32.3125C58.7824 33.3133 58.9917 34.2627 59.3661 35.1195C55.5192 35.3755 52.4758 38.658 52.4758 42.6719C52.4758 45.8267 54.3556 48.5294 57.0276 49.6671C54.6619 50.8158 53.0253 53.2873 53.0253 56.1526C53.0253 59.6561 55.473 62.5704 58.7074 63.1977C58.4641 63.8568 58.3292 64.5704 58.3292 65.3167C58.3292 68.617 60.936 71.2933 64.1507 71.2933C66.0313 71.2933 67.702 70.3773 68.7663 68.9571C69.4045 71.7423 71.8392 73.817 74.747 73.817C77.6479 73.817 80.0781 71.7516 80.7224 68.9758C81.7874 70.3851 83.452 71.2933 85.3236 71.2933C88.5391 71.2933 91.1451 68.6178 91.1451 65.3167C91.1451 64.5704 91.0109 63.8568 90.7676 63.1977C94.0021 62.5704 96.4497 59.6561 96.4497 56.1526C94.2932 47.3536 101.798 36.9522 90.4174 31.2386Z" fill="#96BC5E"/>
<path d="M96.449 56.1533C96.449 59.4918 94.225 62.2972 91.2157 63.0918C90.8662 62.2451 90.6722 61.3143 90.6722 60.3369C90.6722 58.498 91.3551 56.8241 92.4725 55.5674C92.1897 55.6008 91.9024 55.621 91.6091 55.621C87.5363 55.621 84.2351 52.232 84.2351 48.0507C84.2351 45.1877 85.7837 42.696 88.0676 41.4111C85.7837 40.124 84.2351 37.6314 84.2351 34.7684C84.2351 31.6035 86.1309 28.8915 88.8211 27.7623C89.6473 28.7203 90.2158 29.9156 90.4175 31.2385C90.5494 31.3047 90.682 31.3724 90.8079 31.4401C90.3265 32.444 90.0567 33.5731 90.0567 34.7684C90.0567 37.6314 91.6053 40.124 93.8892 41.4111C91.6053 42.696 90.0567 45.1877 90.0567 48.0507C90.0567 51.8421 92.7719 54.9814 96.3133 55.5331C96.3535 55.7409 96.3982 55.9479 96.449 56.1533Z" fill="#85993D"/>
<path d="M116.555 101.342C118.416 101.342 119.8 103.112 119.396 104.978L118.749 107.967C118.453 109.334 117.272 110.307 115.907 110.307H74.9759C73.6115 110.307 72.4305 109.334 72.1342 107.967L71.4876 104.978C71.0835 103.112 72.4669 101.342 74.3286 101.342H116.555Z" fill="#9E7F56"/>
<path d="M119.396 104.978L118.749 107.966C118.453 109.335 117.272 110.307 115.909 110.307H110.087C111.451 110.307 112.631 109.335 112.927 107.966L113.498 105.326L113.574 104.978C113.977 103.113 112.594 101.342 110.733 101.342H116.555C118.415 101.342 119.799 103.113 119.396 104.978Z" fill="#87613C"/>
<path d="M107.036 76.7998C105.042 82.434 105.624 88.6891 108.62 93.833L110.092 96.3614H104.271L102.798 93.833C99.8024 88.6891 99.2203 82.434 101.215 76.7998L103.542 70.4311L104.335 68.67C104.335 68.67 104.63 68.0288 104.461 67.3331C104.917 66.7136 106.237 65.2895 108.41 65.8156C111.16 66.4786 110.157 68.67 110.157 68.67L109.363 70.4311L107.036 76.7998Z" fill="#DDB44E"/>
<path d="M134.576 41.4104C136.859 40.1241 138.408 37.6323 138.408 34.7701C138.408 31.5685 136.472 28.834 133.737 27.7266C134.482 26.5165 134.915 25.0846 134.915 23.5469C134.915 19.2193 131.498 15.7112 127.282 15.7112C125.07 15.7112 123.078 16.6785 121.684 18.2232C121.32 14.3353 118.13 11.2949 114.249 11.2949C114.243 11.2949 114.238 11.2957 114.233 11.2957C114.227 11.2957 114.222 11.2949 114.216 11.2949C110.334 11.2949 107.145 14.3353 106.781 18.2224C105.387 16.6785 103.395 15.7104 101.183 15.7104C96.9674 15.7104 93.5503 19.2193 93.5503 23.5469C93.5503 25.0838 93.9831 26.5165 94.7275 27.7266C91.9933 28.8332 90.0574 31.5685 90.0574 34.7693C90.0574 37.6323 91.6052 40.1233 93.8891 41.4096C91.6052 42.696 90.0574 45.1878 90.0574 48.05C90.0574 52.2313 93.3585 55.6203 97.4313 55.6203C97.7239 55.6203 98.0112 55.6009 98.2947 55.5674C97.1759 56.825 96.4929 58.4981 96.4929 60.3354C96.4929 64.2412 99.5773 67.4077 103.382 67.4077C104.766 67.4077 106.054 66.9875 107.133 66.2661C107.825 69.5563 110.675 72.0232 114.087 72.0232C117.561 72.0232 120.452 69.4668 121.076 66.0863C122.205 66.9174 123.588 67.4077 125.083 67.4077C128.887 67.4077 131.972 64.2412 131.972 60.3354C131.972 58.4981 131.289 56.825 130.17 55.5674C130.453 55.6016 130.742 55.6203 131.034 55.6203C135.106 55.6203 138.408 52.2313 138.408 48.05C138.408 45.1878 136.859 42.6968 134.576 41.4104V41.4104Z" fill="#92D37A"/>
<path d="M120.764 67.2396C119.764 70.0302 117.154 72.0224 114.086 72.0224C113.05 72.0224 112.064 71.7959 111.176 71.3835C113.263 70.4232 114.816 68.459 115.255 66.0863C116.384 66.9166 117.765 67.4092 119.261 67.4092C119.778 67.4092 120.28 67.3509 120.764 67.2396Z" fill="#70BA4D"/>
<path d="M121.021 15.7252C118.986 15.8427 117.164 16.7812 115.862 18.2217C115.594 15.3633 113.797 12.9603 111.321 11.8926C112.212 11.5081 113.19 11.2949 114.216 11.2949H114.249C117.247 11.2949 119.832 13.1081 121.021 15.7252Z" fill="#70BA4D"/>
<path d="M138.409 48.0507C138.409 52.232 135.106 55.621 131.035 55.621C130.742 55.621 130.454 55.6008 130.171 55.5673C131.289 56.8241 131.972 58.498 131.972 60.3369C131.972 64.2411 128.888 67.4092 125.083 67.4092C124.043 67.4092 123.058 67.1718 122.174 66.7477C124.524 65.6201 126.15 63.1734 126.15 60.3369C126.15 58.498 125.467 56.8241 124.35 55.5673C124.633 55.6008 124.92 55.621 125.213 55.621C129.285 55.621 132.587 52.232 132.587 48.0507C132.587 45.1877 131.039 42.6959 128.755 41.4111C131.039 40.124 132.587 37.6314 132.587 34.7684C132.587 31.5693 130.651 28.8339 127.916 27.7265C128.662 26.5172 129.094 25.0845 129.094 23.5468C129.094 20.2776 127.144 17.4745 124.369 16.301C125.266 15.9205 126.25 15.7119 127.282 15.7119C131.499 15.7119 134.916 19.22 134.916 23.5468C134.916 25.0845 134.483 26.5172 133.738 27.7265C136.472 28.8339 138.409 31.5693 138.409 34.7684C138.409 37.6314 136.86 40.124 134.576 41.4111C136.86 42.6959 138.409 45.1877 138.409 48.0507V48.0507Z" fill="#70BA4D"/>
<path d="M137.044 41.6096C138.819 39.9155 139.863 37.5202 139.863 34.9685C139.863 31.7763 138.27 28.9009 135.698 27.269C136.141 26.1562 136.371 24.9616 136.371 23.7461C136.371 18.6014 132.294 14.4163 127.283 14.4163C125.604 14.4163 123.967 14.8995 122.553 15.7828C121.244 12.3587 118.013 10 114.249 10C114.24 10 114.227 10 114.217 10C110.453 10 107.222 12.3587 105.912 15.7828C104.499 14.8988 102.861 14.4163 101.183 14.4163C96.1715 14.4163 92.0949 18.6014 92.0949 23.7461C92.0949 24.9616 92.3246 26.1562 92.7673 27.269C92.1366 27.6698 91.5651 28.146 91.061 28.6822C89.7163 25.9749 87.0048 24.1788 83.8924 24.1453C82.5924 20.7998 79.4353 18.5555 75.8378 18.5555C72.1296 18.5555 68.886 20.9897 67.6709 24.4535C66.9592 24.2496 66.2201 24.1445 65.4772 24.1445C60.983 24.1445 57.3271 27.8978 57.3271 32.5117C57.3271 33.0635 57.3786 33.6066 57.4817 34.1397C53.7432 35.2082 51.0204 38.7428 51.0204 42.8711C51.0204 45.6788 52.2666 48.2586 54.3284 49.9488C52.6046 51.569 51.5707 53.8904 51.5707 56.3518C51.5707 59.9743 53.7591 63.1564 56.9511 64.4295C56.9003 64.7875 56.8745 65.1501 56.8745 65.5159C56.8745 69.6349 60.1385 72.9866 64.1515 72.9866C65.6296 72.9866 67.035 72.5376 68.2197 71.7142C69.5584 74.027 72.0022 75.5095 74.747 75.5095C77.1764 75.5095 79.3701 74.3438 80.7717 72.4706L82.4727 77.49C82.475 77.4962 82.4772 77.5025 82.4795 77.5095C84.3336 82.7436 83.7992 88.4867 81.015 93.2664L79.9659 95.0672H78.2687C76.3964 95.0672 74.8728 96.6306 74.8728 98.5527V100.047H74.3293C72.9983 100.047 71.7566 100.659 70.9236 101.725C70.0905 102.791 69.7782 104.167 70.067 105.502L70.7144 108.49C71.1616 110.556 72.9141 112 74.9767 112H105.824C106.628 112 107.279 111.332 107.279 110.506C107.279 109.68 106.628 109.012 105.824 109.012H74.9767C74.2892 109.012 73.7047 108.531 73.5562 107.842L72.9088 104.854C72.8125 104.409 72.9171 103.95 73.1946 103.595C73.472 103.239 73.8859 103.035 74.3293 103.035H76.3282C77.1325 103.035 77.7836 102.367 77.7836 101.541V98.5527C77.7836 98.278 78.0012 98.0555 78.2687 98.0555H80.7869H80.7899H80.7929H112.615C112.883 98.0555 113.1 98.278 113.1 98.5527V100.047H83.12C82.3165 100.047 81.6646 100.716 81.6646 101.541C81.6646 102.367 82.3165 103.035 83.12 103.035H116.555C116.999 103.035 117.413 103.239 117.69 103.595C117.967 103.95 118.071 104.409 117.975 104.854L117.328 107.842C117.179 108.531 116.595 109.012 115.908 109.012H112.615C111.812 109.012 111.16 109.68 111.16 110.506C111.16 111.332 111.812 112 112.615 112H115.908C117.97 112 119.722 110.556 120.17 108.49L120.817 105.502C121.106 104.167 120.793 102.791 119.96 101.725C119.128 100.659 117.886 100.047 116.555 100.047H116.011V98.5527C116.011 96.6306 114.488 95.0672 112.615 95.0672H110.919L109.87 93.2664C107.085 88.4867 106.551 82.7436 108.4 77.5235L110.155 72.7236C111.344 73.3593 112.686 73.7165 114.088 73.7165C117.538 73.7165 120.587 71.5983 121.931 68.4684C122.923 68.8855 123.989 69.1018 125.084 69.1018C129.685 69.1018 133.428 65.2591 133.428 60.5354C133.428 59.3557 133.194 58.2039 132.747 57.1432C136.799 56.3223 139.864 52.6468 139.864 48.25C139.864 45.6983 138.819 43.303 137.044 41.6096V41.6096ZM81.8731 68.259C81.5297 67.8046 80.9627 67.5937 80.4154 67.7143C79.8681 67.8357 79.4368 68.2691 79.3072 68.8287C78.8024 71.003 76.927 72.5212 74.747 72.5212C72.5601 72.5212 70.6833 70.9967 70.1837 68.8139C70.0549 68.2528 69.6228 67.817 69.074 67.6956C68.5245 67.5734 67.9559 67.7882 67.6133 68.245C66.778 69.3594 65.5167 69.9983 64.1515 69.9983C61.744 69.9983 59.7853 67.9874 59.7853 65.5159C59.7853 64.9704 59.8808 64.4357 60.0688 63.9268C60.2212 63.5136 60.1878 63.0521 59.9771 62.6661C59.7671 62.2809 59.401 62.0109 58.978 61.9284C56.372 61.4233 54.4815 59.0779 54.4815 56.3518C54.4815 54.1674 55.7254 52.1519 57.6507 51.2173C58.1707 50.9644 58.4974 50.4204 58.483 49.8297C58.4694 49.2391 58.1169 48.7122 57.5855 48.4866C55.3661 47.5411 53.9319 45.3372 53.9319 42.8711C53.9319 39.6789 56.3606 37.0159 59.4609 36.8097C59.9369 36.7778 60.3675 36.5093 60.6138 36.0899C60.8594 35.6712 60.8897 35.1545 60.6949 34.7078C60.3917 34.0136 60.2386 33.2751 60.2386 32.5125C60.2386 29.546 62.5884 27.1336 65.478 27.1336C66.3535 27.1336 67.2199 27.3593 67.9832 27.7873C68.4039 28.0231 68.911 28.0309 69.3386 27.8083C69.7668 27.5857 70.0602 27.1608 70.1231 26.6729C70.5036 23.7492 72.9604 21.5438 75.8378 21.5438C78.5075 21.5438 80.8111 23.4021 81.441 26.062C81.6176 26.8091 82.3173 27.2962 83.0594 27.1881C83.311 27.1515 83.5619 27.1336 83.8045 27.1336C86.4015 27.1336 88.5785 29.041 88.9802 31.6697C88.9992 31.7927 89.0333 31.9086 89.078 32.0183C88.7687 32.9491 88.602 33.942 88.602 34.9693C88.602 37.521 89.6465 39.9155 91.4218 41.6096C89.6465 43.3038 88.602 45.6983 88.602 48.25C88.602 52.369 91.2914 55.8546 94.9625 56.9541C94.7078 59.4171 92.909 61.4615 90.4978 61.9284C90.0748 62.0109 89.7087 62.2809 89.4987 62.6669C89.288 63.0521 89.2546 63.5136 89.4078 63.9268C89.595 64.4357 89.6905 64.9696 89.6905 65.5159C89.6905 67.9874 87.7318 69.9983 85.3243 69.9983C83.966 69.9983 82.7084 69.3641 81.8731 68.259V68.259ZM92.524 64.4295C93.567 64.014 94.5016 63.393 95.2892 62.621C96.0745 65.8318 98.6298 68.3267 101.823 68.9493L98.3538 74.4465L97.0463 76.4597C96.5869 76.9928 95.9426 77.2908 95.2278 77.2885C94.3818 77.283 93.6382 76.8589 93.188 76.1227L90.1264 71.1212C91.6424 69.7516 92.6013 67.747 92.6013 65.5151C92.6013 65.1501 92.5755 64.7875 92.524 64.4295V64.4295ZM83.3573 95.0672L83.5127 94.7995C86.7471 89.2486 87.3687 82.5779 85.219 76.4986L83.9842 72.8559C84.4215 72.9391 84.8688 72.9866 85.3243 72.9866C86.1187 72.9866 86.8836 72.8527 87.5999 72.6099L90.7237 77.7134C91.5886 79.1266 93.006 80.0386 94.5941 80.2355L92.0328 84.1779C89.9043 87.4548 88.4148 91.1956 87.684 95.0664H83.3573V95.0672ZM105.669 76.4877C103.514 82.5709 104.135 89.2455 107.371 94.7995L107.527 95.0672H90.6547C91.346 91.7855 92.643 88.6237 94.4539 85.8362L99.3696 78.269C99.4954 78.1102 99.6152 77.9453 99.7243 77.7702L105.349 68.859C105.667 68.7796 105.982 68.6832 106.289 68.5656C106.66 69.3952 107.154 70.1516 107.742 70.8154L105.669 76.4877ZM133.877 42.9193C135.774 43.9886 136.953 46.0306 136.953 48.25C136.953 51.6001 134.297 54.3262 131.034 54.3262C130.811 54.3262 130.583 54.3122 130.338 54.2826C129.736 54.2133 129.152 54.5308 128.875 55.0857C128.598 55.6413 128.687 56.3145 129.096 56.7744C130.012 57.8047 130.517 59.1401 130.517 60.5354C130.517 63.6109 128.079 66.1135 125.084 66.1135C123.943 66.1135 122.851 65.7532 121.924 65.0715C121.52 64.7743 120.997 64.7089 120.535 64.8988C120.074 65.0887 119.739 65.5065 119.646 66.0077C119.141 68.7431 116.803 70.7283 114.087 70.7283C111.44 70.7283 109.114 68.803 108.556 66.1501C108.455 65.67 108.131 65.2715 107.688 65.084C107.51 65.0085 107.321 64.9711 107.134 64.9711C106.856 64.9711 106.58 65.0529 106.34 65.2132C105.459 65.8023 104.435 66.1135 103.383 66.1135C100.386 66.1135 97.9491 63.6109 97.9491 60.5354C97.9491 59.1401 98.4531 57.8047 99.3696 56.7752C99.7789 56.3145 99.8676 55.6413 99.5909 55.0865C99.3135 54.5308 98.7306 54.2133 98.1272 54.2826C97.8831 54.3122 97.655 54.3262 97.4313 54.3262C94.1681 54.3262 91.5128 51.6001 91.5128 48.25C91.5128 46.0314 92.6915 43.9886 94.5895 42.9193C95.055 42.6571 95.3445 42.1552 95.3445 41.6096C95.3445 41.0641 95.055 40.5622 94.5895 40.2999C92.6915 39.2307 91.5128 37.1879 91.5128 34.9693C91.5128 32.4572 92.9841 30.2378 95.2619 29.3157C95.6652 29.153 95.9767 28.8129 96.1116 28.3904C96.2458 27.967 96.1897 27.504 95.9578 27.1281C95.3347 26.1157 95.0057 24.9461 95.0057 23.7461C95.0057 20.2496 97.777 17.4046 101.183 17.4046C102.921 17.4046 104.53 18.1267 105.714 19.438C106.104 19.8691 106.704 20.0255 107.247 19.838C107.79 19.6489 108.175 19.1508 108.23 18.5648C108.526 15.3914 111.092 12.9976 114.199 12.9883C114.219 12.9891 114.239 12.9891 114.264 12.9883C117.373 12.9961 119.939 15.3914 120.235 18.5648C120.29 19.1508 120.675 19.6489 121.218 19.838C121.762 20.0255 122.362 19.8691 122.751 19.438C123.935 18.1267 125.545 17.4046 127.283 17.4046C130.688 17.4046 133.46 20.2496 133.46 23.7461C133.46 24.9461 133.131 26.1157 132.507 27.1281C132.276 27.504 132.22 27.967 132.354 28.3904C132.489 28.8129 132.8 29.153 133.204 29.3157C135.481 30.2378 136.953 32.4572 136.953 34.9693C136.953 37.1879 135.774 39.2307 133.876 40.2999C133.41 40.5622 133.121 41.0641 133.121 41.6096C133.121 42.1552 133.41 42.6571 133.877 42.9193V42.9193Z" fill="black"/>
<path d="M97.2047 31.9141C95.6 31.9141 94.2939 33.2549 94.2939 34.9023C94.2939 36.5498 95.6 37.8906 97.2047 37.8906C98.8094 37.8906 100.115 36.5498 100.115 34.9023C100.115 33.2549 98.8102 31.9141 97.2047 31.9141Z" fill="black"/>
<path d="M131.358 31.9141C129.753 31.9141 128.447 33.2549 128.447 34.9023C128.447 36.5498 129.753 37.8906 131.358 37.8906C132.963 37.8906 134.269 36.5498 134.269 34.9023C134.269 33.2549 132.963 31.9141 131.358 31.9141Z" fill="black"/>
<path d="M114.281 15.5781C112.677 15.5781 111.37 16.919 111.37 18.5664C111.37 20.2139 112.677 21.5547 114.281 21.5547C115.886 21.5547 117.192 20.2139 117.192 18.5664C117.192 16.919 115.887 15.5781 114.281 15.5781Z" fill="black"/>
<path d="M100.892 26.3359C102.496 26.3359 103.802 24.9951 103.802 23.3477C103.802 21.7002 102.496 20.3594 100.892 20.3594C99.287 20.3594 97.9809 21.7002 97.9809 23.3477C97.9809 24.9951 99.287 26.3359 100.892 26.3359Z" fill="black"/>
<path d="M127.477 26.5352C129.081 26.5352 130.388 25.1943 130.388 23.5469C130.388 21.8994 129.081 20.5586 127.477 20.5586C125.872 20.5586 124.566 21.8994 124.566 23.5469C124.566 25.1943 125.872 26.5352 127.477 26.5352Z" fill="black"/>
<path d="M128.641 48.4492C128.641 50.0967 129.947 51.4375 131.552 51.4375C133.157 51.4375 134.463 50.0967 134.463 48.4492C134.463 46.8018 133.157 45.4609 131.552 45.4609C129.947 45.4609 128.641 46.8018 128.641 48.4492Z" fill="black"/>
<path d="M124.76 57.2148C123.155 57.2148 121.849 58.5557 121.849 60.2031C121.849 61.8506 123.155 63.1914 124.76 63.1914C126.365 63.1914 127.671 61.8506 127.671 60.2031C127.671 58.5557 126.365 57.2148 124.76 57.2148Z" fill="black"/>
<path d="M114.281 62.1953C112.677 62.1953 111.37 63.5361 111.37 65.1836C111.37 66.831 112.677 68.1719 114.281 68.1719C115.886 68.1719 117.192 66.831 117.192 65.1836C117.192 63.5361 115.887 62.1953 114.281 62.1953Z" fill="black"/>
<path d="M97.2047 45.4609C95.6 45.4609 94.2939 46.8018 94.2939 48.4492C94.2939 50.0967 95.6 51.4375 97.2047 51.4375C98.8094 51.4375 100.115 50.0967 100.115 48.4492C100.115 46.8018 98.8102 45.4609 97.2047 45.4609Z" fill="black"/>
<path d="M103.608 57.2148C102.004 57.2148 100.698 58.5557 100.698 60.2031C100.698 61.8506 102.004 63.1914 103.608 63.1914C105.213 63.1914 106.519 61.8506 106.519 60.2031C106.519 58.5557 105.214 57.2148 103.608 57.2148Z" fill="black"/>
<path d="M109.43 37.4922C111.035 37.4922 112.341 36.1514 112.341 34.5039C112.341 32.8565 111.035 31.5156 109.43 31.5156C107.825 31.5156 106.519 32.8565 106.519 34.5039C106.519 36.1514 107.825 37.4922 109.43 37.4922Z" fill="black"/>
<path d="M120.879 35.8984C122.484 35.8984 123.79 34.5576 123.79 32.9102C123.79 31.2627 122.484 29.9219 120.879 29.9219C119.274 29.9219 117.968 31.2627 117.968 32.9102C117.968 34.5576 119.274 35.8984 120.879 35.8984Z" fill="black"/>
<path d="M123.984 48.4492C123.984 46.8018 122.678 45.4609 121.073 45.4609C119.468 45.4609 118.162 46.8018 118.162 48.4492C118.162 50.0967 119.468 51.4375 121.073 51.4375C122.678 51.4375 123.984 50.0967 123.984 48.4492Z" fill="black"/>
<path d="M108.654 46.8555C107.049 46.8555 105.743 48.1963 105.743 49.8438C105.743 51.4912 107.049 52.832 108.654 52.832C110.258 52.832 111.565 51.4912 111.565 49.8438C111.565 48.1963 110.259 46.8555 108.654 46.8555Z" fill="black"/>
<path d="M75.4709 30.3203C77.0756 30.3203 78.3817 28.9795 78.3817 27.332C78.3817 25.6846 77.0756 24.3438 75.4709 24.3438C73.8662 24.3438 72.5601 25.6846 72.5601 27.332C72.5601 28.9795 73.8662 30.3203 75.4709 30.3203Z" fill="black"/>
<path d="M62.2754 42.6719C62.2754 41.0244 60.9693 39.6836 59.3646 39.6836C57.7599 39.6836 56.4539 41.0244 56.4539 42.6719C56.4539 44.3193 57.7599 45.6602 59.3646 45.6602C60.9693 45.6602 62.2754 44.3193 62.2754 42.6719Z" fill="black"/>
<path d="M65.7683 35.5C67.373 35.5 68.6791 34.1592 68.6791 32.5117C68.6791 30.8643 67.373 29.5234 65.7683 29.5234C64.1636 29.5234 62.8575 30.8643 62.8575 32.5117C62.8575 34.1592 64.1636 35.5 65.7683 35.5Z" fill="black"/>
<path d="M59.9468 53.2305C58.3421 53.2305 57.036 54.5713 57.036 56.2188C57.036 57.8662 58.3421 59.207 59.9468 59.207C61.5515 59.207 62.8576 57.8662 62.8576 56.2188C62.8576 54.5713 61.5515 53.2305 59.9468 53.2305Z" fill="black"/>
<path d="M74.8887 63.7891C73.284 63.7891 71.978 65.1299 71.978 66.7773C71.978 68.4248 73.284 69.7656 74.8887 69.7656C76.4935 69.7656 77.7995 68.4248 77.7995 66.7773C77.7995 65.1299 76.4935 63.7891 74.8887 63.7891Z" fill="black"/>
<path d="M64.9921 61.1992C63.3874 61.1992 62.0814 62.5401 62.0814 64.1875C62.0814 65.8349 63.3874 67.1758 64.9921 67.1758C66.5969 67.1758 67.9029 65.8349 67.9029 64.1875C67.9029 62.5401 66.5969 61.1992 64.9921 61.1992Z" fill="black"/>
<path d="M87.8902 64.3867C87.8902 62.7393 86.5842 61.3984 84.9794 61.3984C83.3747 61.3984 82.0687 62.7393 82.0687 64.3867C82.0687 66.0342 83.3747 67.375 84.9794 67.375C86.5842 67.375 87.8902 66.0342 87.8902 64.3867Z" fill="black"/>
<path d="M83.233 35.8984C84.8377 35.8984 86.1438 34.5576 86.1438 32.9102C86.1438 31.2627 84.8377 29.9219 83.233 29.9219C81.6283 29.9219 80.3222 31.2627 80.3222 32.9102C80.3222 34.5576 81.6283 35.8984 83.233 35.8984Z" fill="black"/>
<path d="M68.2872 48.1387C66.6825 48.1387 65.3765 49.4795 65.3765 51.127C65.3765 52.7752 66.6825 54.1152 68.2872 54.1152C69.892 54.1152 71.198 52.7752 71.198 51.127C71.198 49.4795 69.892 48.1387 68.2872 48.1387Z" fill="black"/>
<path d="M84.0092 52.9316C84.0092 51.2842 82.7031 49.9434 81.0984 49.9434C79.4937 49.9434 78.1876 51.2842 78.1876 52.9316C78.1876 54.5791 79.4937 55.9199 81.0984 55.9199C82.7031 55.9199 84.0092 54.5791 84.0092 52.9316Z" fill="black"/>
<path d="M79.0601 41.1777C79.0601 39.5303 77.7548 38.1895 76.1493 38.1895C74.5446 38.1895 73.2385 39.5303 73.2385 41.1777C73.2385 42.8252 74.5446 44.166 76.1493 44.166C77.7548 44.166 79.0601 42.8252 79.0601 41.1777Z" fill="black"/>
<path d="M236.509 77.1904C234.849 79.1966 231.688 79.0316 230.273 76.718L225.463 68.8442L219.253 68.2466L222.164 76.7998C224.159 82.4331 223.578 88.6891 220.58 93.8337L219.108 96.3621L228.374 101.343L239.829 77.0589L236.509 77.1904Z" fill="#DDB44E"/>
<path d="M245.353 76.7997C243.359 82.4339 243.941 88.689 246.937 93.8329L248.409 96.3613L238.27 101.292L227.225 96.3613C227.524 94.2952 228.042 92.275 228.769 90.3388C229.497 88.4003 230.431 86.5459 231.56 84.8089L236.509 77.1904C236.51 77.1888 236.51 77.1865 236.512 77.1865C236.621 77.0526 236.725 76.9094 236.821 76.7585L237.888 75.0667L242.598 67.6037C242.598 67.6037 243.98 65.1493 246.727 65.8154C249.477 66.4785 248.474 68.6699 248.474 68.6699L247.68 70.4309L245.353 76.7997Z" fill="#EDD183"/>
<path d="M252.873 105.326V98.3535C252.873 97.2531 252.004 96.3613 250.932 96.3613H216.586C215.514 96.3613 214.645 97.2531 214.645 98.3535V105.326H252.873Z" fill="#96BC5E"/>
<path d="M252.873 98.3535V105.326H247.051V98.3535C247.051 97.2539 246.182 96.3613 245.111 96.3613H250.932C252.003 96.3613 252.873 97.2539 252.873 98.3535Z" fill="#85993D"/>
<path d="M228.734 31.2386C228.232 27.9523 225.462 25.4395 222.121 25.4395C221.798 25.4395 221.482 25.4644 221.171 25.5095C220.403 22.2621 217.554 19.8505 214.154 19.8505C210.492 19.8505 207.468 22.6489 206.997 26.276C206.045 25.743 204.954 25.4395 203.794 25.4395C200.097 25.4395 197.099 28.5165 197.099 32.3125C197.099 33.3133 197.309 34.2627 197.683 35.1195C193.836 35.3755 190.793 38.658 190.793 42.6719C190.793 45.8267 192.673 48.5294 195.345 49.6671C192.979 50.8158 191.342 53.2873 191.342 56.1526C191.342 59.6561 193.79 62.5704 197.024 63.1977C196.781 63.8568 196.646 64.5704 196.646 65.3167C196.646 68.617 199.253 71.2933 202.468 71.2933C204.348 71.2933 206.019 70.3773 207.083 68.9571C207.721 71.7423 210.156 73.817 213.064 73.817C215.965 73.817 218.395 71.7516 219.039 68.9758C220.104 70.3851 221.769 71.2933 223.641 71.2933C226.856 71.2933 229.462 68.6178 229.462 65.3167C229.462 64.5704 229.328 63.8568 229.085 63.1977C232.319 62.5704 234.767 59.6561 234.767 56.1526C232.61 47.3536 240.115 36.9522 228.734 31.2386Z" fill="#96BC5E"/>
<path d="M234.766 56.1533C234.766 59.4918 232.542 62.2972 229.533 63.0918C229.183 62.2451 228.989 61.3143 228.989 60.3369C228.989 58.498 229.672 56.8241 230.789 55.5674C230.507 55.6008 230.219 55.621 229.926 55.621C225.853 55.621 222.552 52.232 222.552 48.0507C222.552 45.1877 224.101 42.696 226.385 41.4111C224.101 40.124 222.552 37.6314 222.552 34.7684C222.552 31.6035 224.448 28.8915 227.138 27.7623C227.964 28.7203 228.533 29.9156 228.734 31.2385C228.866 31.3047 228.999 31.3724 229.125 31.4401C228.643 32.444 228.374 33.5731 228.374 34.7684C228.374 37.6314 229.922 40.124 232.206 41.4111C229.922 42.696 228.374 45.1877 228.374 48.0507C228.374 51.8421 231.089 54.9814 234.63 55.5331C234.67 55.7409 234.715 55.9479 234.766 56.1533Z" fill="#85993D"/>
<path d="M254.872 101.342C256.733 101.342 258.117 103.112 257.713 104.978L257.066 107.967C256.77 109.334 255.589 110.307 254.224 110.307H213.293C211.928 110.307 210.747 109.334 210.451 107.967L209.805 104.978C209.4 103.112 210.784 101.342 212.646 101.342H254.872Z" fill="#9E7F56"/>
<path d="M257.713 104.978L257.066 107.966C256.77 109.335 255.589 110.307 254.226 110.307H248.404C249.768 110.307 250.948 109.335 251.244 107.966L251.815 105.326L251.891 104.978C252.294 103.113 250.911 101.342 249.05 101.342H254.871C256.732 101.342 258.116 103.113 257.713 104.978Z" fill="#87613C"/>
<path d="M245.353 76.7998C243.359 82.434 243.941 88.6891 246.937 93.833L248.409 96.3614H242.588L241.115 93.833C238.119 88.6891 237.537 82.434 239.532 76.7998L241.859 70.4311L242.652 68.67C242.652 68.67 242.947 68.0288 242.778 67.3331C243.234 66.7136 244.554 65.2895 246.727 65.8156C249.477 66.4786 248.474 68.67 248.474 68.67L247.68 70.4311L245.353 76.7998Z" fill="#DDB44E"/>
<path d="M272.893 41.4104C275.176 40.1241 276.725 37.6323 276.725 34.7701C276.725 31.5685 274.789 28.834 272.054 27.7266C272.799 26.5165 273.232 25.0846 273.232 23.5469C273.232 19.2193 269.815 15.7112 265.599 15.7112C263.387 15.7112 261.395 16.6785 260.001 18.2232C259.637 14.3353 256.447 11.2949 252.566 11.2949C252.56 11.2949 252.555 11.2957 252.55 11.2957C252.544 11.2957 252.539 11.2949 252.533 11.2949C248.651 11.2949 245.461 14.3353 245.098 18.2224C243.704 16.6785 241.712 15.7104 239.5 15.7104C235.284 15.7104 231.867 19.2193 231.867 23.5469C231.867 25.0838 232.3 26.5165 233.044 27.7266C230.31 28.8332 228.374 31.5685 228.374 34.7693C228.374 37.6323 229.922 40.1233 232.206 41.4096C229.922 42.696 228.374 45.1878 228.374 48.05C228.374 52.2313 231.675 55.6203 235.748 55.6203C236.041 55.6203 236.328 55.6009 236.612 55.5674C235.493 56.825 234.81 58.4981 234.81 60.3354C234.81 64.2412 237.894 67.4077 241.699 67.4077C243.083 67.4077 244.371 66.9875 245.45 66.2661C246.142 69.5563 248.992 72.0232 252.404 72.0232C255.878 72.0232 258.769 69.4668 259.393 66.0863C260.522 66.9174 261.905 67.4077 263.4 67.4077C267.204 67.4077 270.289 64.2412 270.289 60.3354C270.289 58.4981 269.606 56.825 268.487 55.5674C268.77 55.6016 269.058 55.6203 269.351 55.6203C273.423 55.6203 276.725 52.2313 276.725 48.05C276.725 45.1878 275.176 42.6968 272.893 41.4104V41.4104Z" fill="#92D37A"/>
<path d="M259.081 67.2396C258.081 70.0302 255.471 72.0224 252.403 72.0224C251.367 72.0224 250.381 71.7959 249.493 71.3835C251.58 70.4232 253.133 68.459 253.572 66.0863C254.701 66.9166 256.082 67.4092 257.578 67.4092C258.095 67.4092 258.597 67.3509 259.081 67.2396Z" fill="#70BA4D"/>
<path d="M259.338 15.7252C257.303 15.8427 255.481 16.7812 254.179 18.2217C253.911 15.3633 252.114 12.9603 249.638 11.8926C250.529 11.5081 251.507 11.2949 252.533 11.2949H252.566C255.564 11.2949 258.149 13.1081 259.338 15.7252Z" fill="#70BA4D"/>
<path d="M276.726 48.0507C276.726 52.232 273.423 55.621 269.352 55.621C269.059 55.621 268.771 55.6008 268.489 55.5673C269.606 56.8241 270.289 58.498 270.289 60.3369C270.289 64.2411 267.205 67.4092 263.4 67.4092C262.36 67.4092 261.375 67.1718 260.491 66.7477C262.841 65.6201 264.467 63.1734 264.467 60.3369C264.467 58.498 263.784 56.8241 262.667 55.5673C262.95 55.6008 263.237 55.621 263.53 55.621C267.602 55.621 270.904 52.232 270.904 48.0507C270.904 45.1877 269.356 42.6959 267.072 41.4111C269.356 40.124 270.904 37.6314 270.904 34.7684C270.904 31.5693 268.968 28.8339 266.233 27.7265C266.979 26.5172 267.411 25.0845 267.411 23.5468C267.411 20.2776 265.461 17.4745 262.686 16.301C263.583 15.9205 264.567 15.7119 265.599 15.7119C269.816 15.7119 273.233 19.22 273.233 23.5468C273.233 25.0845 272.8 26.5172 272.055 27.7265C274.789 28.8339 276.726 31.5693 276.726 34.7684C276.726 37.6314 275.177 40.124 272.893 41.4111C275.177 42.6959 276.726 45.1877 276.726 48.0507V48.0507Z" fill="#70BA4D"/>
<path d="M275.361 41.6096C277.136 39.9155 278.18 37.5202 278.18 34.9685C278.18 31.7763 276.587 28.9009 274.015 27.269C274.458 26.1562 274.687 24.9616 274.687 23.7461C274.687 18.6014 270.611 14.4163 265.6 14.4163C263.921 14.4163 262.284 14.8995 260.87 15.7828C259.561 12.3587 256.33 10 252.566 10C252.557 10 252.544 10 252.534 10C248.769 10 245.539 12.3587 244.229 15.7828C242.816 14.8988 241.178 14.4163 239.5 14.4163C234.488 14.4163 230.412 18.6014 230.412 23.7461C230.412 24.9616 230.642 26.1562 231.084 27.269C230.454 27.6698 229.882 28.146 229.378 28.6822C228.033 25.9749 225.322 24.1788 222.209 24.1453C220.909 20.7998 217.752 18.5555 214.155 18.5555C210.447 18.5555 207.203 20.9897 205.988 24.4535C205.276 24.2496 204.537 24.1445 203.794 24.1445C199.3 24.1445 195.644 27.8978 195.644 32.5117C195.644 33.0635 195.696 33.6066 195.799 34.1397C192.06 35.2082 189.337 38.7428 189.337 42.8711C189.337 45.6788 190.584 48.2586 192.645 49.9488C190.922 51.569 189.888 53.8904 189.888 56.3518C189.888 59.9743 192.076 63.1564 195.268 64.4295C195.217 64.7875 195.191 65.1501 195.191 65.5159C195.191 69.6349 198.455 72.9866 202.468 72.9866C203.947 72.9866 205.352 72.5376 206.537 71.7142C207.875 74.027 210.319 75.5095 213.064 75.5095C215.493 75.5095 217.687 74.3438 219.089 72.4706L220.79 77.49C220.792 77.4962 220.794 77.5025 220.796 77.5095C222.651 82.7436 222.116 88.4867 219.332 93.2664L218.283 95.0672H216.586C214.713 95.0672 213.19 96.6306 213.19 98.5527V100.047H212.646C211.315 100.047 210.074 100.659 209.241 101.725C208.407 102.791 208.095 104.167 208.384 105.502L209.031 108.49C209.479 110.556 211.231 112 213.294 112H244.141C244.945 112 245.596 111.332 245.596 110.506C245.596 109.68 244.945 109.012 244.141 109.012H213.294C212.606 109.012 212.022 108.531 211.873 107.842L211.226 104.854C211.129 104.409 211.234 103.95 211.512 103.595C211.789 103.239 212.203 103.035 212.646 103.035H214.645C215.449 103.035 216.101 102.367 216.101 101.541V98.5527C216.101 98.278 216.318 98.0555 216.586 98.0555H219.104H219.107H219.11H250.932C251.2 98.0555 251.417 98.278 251.417 98.5527V100.047H221.437C220.633 100.047 219.982 100.716 219.982 101.541C219.982 102.367 220.633 103.035 221.437 103.035H254.871C255.316 103.035 255.73 103.239 256.007 103.595C256.284 103.95 256.388 104.409 256.292 104.854L255.645 107.842C255.496 108.531 254.912 109.012 254.225 109.012H250.932C250.129 109.012 249.477 109.68 249.477 110.506C249.477 111.332 250.129 112 250.932 112H254.225C256.287 112 258.039 110.556 258.487 108.49L259.134 105.502C259.423 104.167 259.11 102.791 258.277 101.725C257.445 100.659 256.203 100.047 254.871 100.047H254.328V98.5527C254.328 96.6306 252.805 95.0672 250.932 95.0672H249.236L248.187 93.2664C245.402 88.4867 244.868 82.7436 246.717 77.5235L248.472 72.7236C249.661 73.3593 251.003 73.7165 252.405 73.7165C255.855 73.7165 258.904 71.5983 260.248 68.4684C261.24 68.8855 262.306 69.1018 263.401 69.1018C268.002 69.1018 271.745 65.2591 271.745 60.5354C271.745 59.3557 271.511 58.2039 271.064 57.1432C275.116 56.3223 278.181 52.6468 278.181 48.25C278.181 45.6983 277.136 43.303 275.361 41.6096V41.6096ZM220.19 68.259C219.847 67.8046 219.28 67.5937 218.732 67.7143C218.185 67.8357 217.754 68.2691 217.624 68.8287C217.119 71.003 215.244 72.5212 213.064 72.5212C210.877 72.5212 209 70.9967 208.501 68.8139C208.372 68.2528 207.94 67.817 207.391 67.6956C206.841 67.5734 206.273 67.7882 205.93 68.245C205.095 69.3594 203.834 69.9983 202.468 69.9983C200.061 69.9983 198.102 67.9874 198.102 65.5159C198.102 64.9704 198.198 64.4357 198.386 63.9268C198.538 63.5136 198.505 63.0521 198.294 62.6661C198.084 62.2809 197.718 62.0109 197.295 61.9284C194.689 61.4233 192.798 59.0779 192.798 56.3518C192.798 54.1674 194.042 52.1519 195.968 51.2173C196.488 50.9644 196.814 50.4204 196.8 49.8297C196.786 49.2391 196.434 48.7122 195.903 48.4866C193.683 47.5411 192.249 45.3372 192.249 42.8711C192.249 39.6789 194.678 37.0159 197.778 36.8097C198.254 36.7778 198.684 36.5093 198.931 36.0899C199.176 35.6712 199.207 35.1545 199.012 34.7078C198.709 34.0136 198.556 33.2751 198.556 32.5125C198.556 29.546 200.905 27.1336 203.795 27.1336C204.67 27.1336 205.537 27.3593 206.3 27.7873C206.721 28.0231 207.228 28.0309 207.656 27.8083C208.084 27.5857 208.377 27.1608 208.44 26.6729C208.821 23.7492 211.277 21.5438 214.155 21.5438C216.824 21.5438 219.128 23.4021 219.758 26.062C219.935 26.8091 220.634 27.2962 221.376 27.1881C221.628 27.1515 221.879 27.1336 222.121 27.1336C224.718 27.1336 226.895 29.041 227.297 31.6697C227.316 31.7927 227.35 31.9086 227.395 32.0183C227.086 32.9491 226.919 33.942 226.919 34.9693C226.919 37.521 227.963 39.9155 229.739 41.6096C227.963 43.3038 226.919 45.6983 226.919 48.25C226.919 52.369 229.608 55.8546 233.279 56.9541C233.025 59.4171 231.226 61.4615 228.815 61.9284C228.392 62.0109 228.026 62.2809 227.816 62.6669C227.605 63.0521 227.572 63.5136 227.725 63.9268C227.912 64.4357 228.007 64.9696 228.007 65.5159C228.007 67.9874 226.049 69.9983 223.641 69.9983C222.283 69.9983 221.025 69.3641 220.19 68.259V68.259ZM230.841 64.4295C231.884 64.014 232.819 63.393 233.606 62.621C234.391 65.8318 236.947 68.3267 240.14 68.9493L236.671 74.4465L235.363 76.4597C234.904 76.9928 234.26 77.2908 233.545 77.2885C232.699 77.283 231.955 76.8589 231.505 76.1227L228.443 71.1212C229.959 69.7516 230.918 67.747 230.918 65.5151C230.918 65.1501 230.892 64.7875 230.841 64.4295V64.4295ZM221.674 95.0672L221.83 94.7995C225.064 89.2486 225.686 82.5779 223.536 76.4986L222.301 72.8559C222.738 72.9391 223.186 72.9866 223.641 72.9866C224.436 72.9866 225.201 72.8527 225.917 72.6099L229.041 77.7134C229.906 79.1266 231.323 80.0386 232.911 80.2355L230.35 84.1779C228.221 87.4548 226.732 91.1956 226.001 95.0664H221.674V95.0672ZM243.986 76.4877C241.831 82.5709 242.452 89.2455 245.688 94.7995L245.844 95.0672H228.972C229.663 91.7855 230.96 88.6237 232.771 85.8362L237.687 78.269C237.812 78.1102 237.932 77.9453 238.041 77.7702L243.666 68.859C243.984 68.7796 244.299 68.6832 244.606 68.5656C244.977 69.3952 245.471 70.1516 246.059 70.8154L243.986 76.4877ZM272.194 42.9193C274.091 43.9886 275.27 46.0306 275.27 48.25C275.27 51.6001 272.614 54.3262 269.351 54.3262C269.127 54.3262 268.9 54.3122 268.655 54.2826C268.053 54.2133 267.469 54.5308 267.192 55.0857C266.915 55.6413 267.004 56.3145 267.413 56.7744C268.329 57.8047 268.834 59.1401 268.834 60.5354C268.834 63.6109 266.396 66.1135 263.401 66.1135C262.26 66.1135 261.168 65.7532 260.24 65.0715C259.837 64.7743 259.314 64.7089 258.852 64.8988C258.391 65.0887 258.056 65.5065 257.963 66.0077C257.458 68.7431 255.12 70.7283 252.404 70.7283C249.757 70.7283 247.431 68.803 246.873 66.1501C246.772 65.67 246.448 65.2715 246.005 65.084C245.827 65.0085 245.638 64.9711 245.451 64.9711C245.173 64.9711 244.897 65.0529 244.656 65.2132C243.776 65.8023 242.752 66.1135 241.699 66.1135C238.703 66.1135 236.266 63.6109 236.266 60.5354C236.266 59.1401 236.77 57.8047 237.687 56.7752C238.096 56.3145 238.185 55.6413 237.908 55.0865C237.63 54.5308 237.048 54.2133 236.444 54.2826C236.2 54.3122 235.972 54.3262 235.748 54.3262C232.485 54.3262 229.83 51.6001 229.83 48.25C229.83 46.0314 231.008 43.9886 232.906 42.9193C233.372 42.6571 233.661 42.1552 233.661 41.6096C233.661 41.0641 233.372 40.5622 232.906 40.2999C231.008 39.2307 229.83 37.1879 229.83 34.9693C229.83 32.4572 231.301 30.2378 233.579 29.3157C233.982 29.153 234.294 28.8129 234.429 28.3904C234.563 27.967 234.507 27.504 234.275 27.1281C233.652 26.1157 233.323 24.9461 233.323 23.7461C233.323 20.2496 236.094 17.4046 239.5 17.4046C241.238 17.4046 242.847 18.1267 244.031 19.438C244.421 19.8691 245.021 20.0255 245.564 19.838C246.107 19.6489 246.492 19.1508 246.547 18.5648C246.843 15.3914 249.408 12.9976 252.516 12.9883C252.536 12.9891 252.556 12.9891 252.581 12.9883C255.69 12.9961 258.256 15.3914 258.552 18.5648C258.607 19.1508 258.992 19.6489 259.535 19.838C260.079 20.0255 260.679 19.8691 261.068 19.438C262.252 18.1267 263.862 17.4046 265.6 17.4046C269.005 17.4046 271.777 20.2496 271.777 23.7461C271.777 24.9461 271.448 26.1157 270.824 27.1281C270.593 27.504 270.537 27.967 270.671 28.3904C270.806 28.8129 271.117 29.153 271.521 29.3157C273.798 30.2378 275.27 32.4572 275.27 34.9693C275.27 37.1879 274.091 39.2307 272.193 40.2999C271.727 40.5622 271.438 41.0641 271.438 41.6096C271.438 42.1552 271.727 42.6571 272.194 42.9193V42.9193Z" fill="black"/>
<path d="M235.522 31.9141C233.917 31.9141 232.611 33.2549 232.611 34.9023C232.611 36.5498 233.917 37.8906 235.522 37.8906C237.126 37.8906 238.432 36.5498 238.432 34.9023C238.432 33.2549 237.127 31.9141 235.522 31.9141Z" fill="black"/>
<path d="M269.675 31.9141C268.07 31.9141 266.764 33.2549 266.764 34.9023C266.764 36.5498 268.07 37.8906 269.675 37.8906C271.279 37.8906 272.586 36.5498 272.586 34.9023C272.586 33.2549 271.28 31.9141 269.675 31.9141Z" fill="black"/>
<path d="M252.598 15.5781C250.993 15.5781 249.687 16.919 249.687 18.5664C249.687 20.2139 250.993 21.5547 252.598 21.5547C254.203 21.5547 255.509 20.2139 255.509 18.5664C255.509 16.919 254.204 15.5781 252.598 15.5781Z" fill="black"/>
<path d="M239.209 26.3359C240.813 26.3359 242.119 24.9951 242.119 23.3477C242.119 21.7002 240.813 20.3594 239.209 20.3594C237.604 20.3594 236.298 21.7002 236.298 23.3477C236.298 24.9951 237.604 26.3359 239.209 26.3359Z" fill="black"/>
<path d="M265.794 26.5352C267.398 26.5352 268.704 25.1943 268.704 23.5469C268.704 21.8994 267.398 20.5586 265.794 20.5586C264.189 20.5586 262.883 21.8994 262.883 23.5469C262.883 25.1943 264.189 26.5352 265.794 26.5352Z" fill="black"/>
<path d="M266.958 48.4492C266.958 50.0967 268.264 51.4375 269.869 51.4375C271.473 51.4375 272.78 50.0967 272.78 48.4492C272.78 46.8018 271.473 45.4609 269.869 45.4609C268.264 45.4609 266.958 46.8018 266.958 48.4492Z" fill="black"/>
<path d="M263.077 57.2148C261.472 57.2148 260.166 58.5557 260.166 60.2031C260.166 61.8506 261.472 63.1914 263.077 63.1914C264.682 63.1914 265.988 61.8506 265.988 60.2031C265.988 58.5557 264.683 57.2148 263.077 57.2148Z" fill="black"/>
<path d="M252.598 62.1953C250.993 62.1953 249.687 63.5361 249.687 65.1836C249.687 66.831 250.993 68.1719 252.598 68.1719C254.203 68.1719 255.509 66.831 255.509 65.1836C255.509 63.5361 254.204 62.1953 252.598 62.1953Z" fill="black"/>
<path d="M235.522 45.4609C233.917 45.4609 232.611 46.8018 232.611 48.4492C232.611 50.0967 233.917 51.4375 235.522 51.4375C237.126 51.4375 238.432 50.0967 238.432 48.4492C238.432 46.8018 237.127 45.4609 235.522 45.4609Z" fill="black"/>
<path d="M241.925 57.2148C240.321 57.2148 239.015 58.5557 239.015 60.2031C239.015 61.8506 240.321 63.1914 241.925 63.1914C243.53 63.1914 244.836 61.8506 244.836 60.2031C244.836 58.5557 243.531 57.2148 241.925 57.2148Z" fill="black"/>
<path d="M247.747 37.4922C249.352 37.4922 250.658 36.1514 250.658 34.5039C250.658 32.8565 249.352 31.5156 247.747 31.5156C246.142 31.5156 244.836 32.8565 244.836 34.5039C244.836 36.1514 246.142 37.4922 247.747 37.4922Z" fill="black"/>
<path d="M259.196 35.8984C260.801 35.8984 262.107 34.5576 262.107 32.9102C262.107 31.2627 260.801 29.9219 259.196 29.9219C257.591 29.9219 256.285 31.2627 256.285 32.9102C256.285 34.5576 257.591 35.8984 259.196 35.8984Z" fill="black"/>
<path d="M262.301 48.4492C262.301 46.8018 260.995 45.4609 259.39 45.4609C257.785 45.4609 256.479 46.8018 256.479 48.4492C256.479 50.0967 257.785 51.4375 259.39 51.4375C260.995 51.4375 262.301 50.0967 262.301 48.4492Z" fill="black"/>
<path d="M246.971 46.8555C245.366 46.8555 244.06 48.1963 244.06 49.8438C244.06 51.4912 245.366 52.832 246.971 52.832C248.575 52.832 249.881 51.4912 249.881 49.8438C249.881 48.1963 248.576 46.8555 246.971 46.8555Z" fill="black"/>
<path d="M213.788 30.3203C215.393 30.3203 216.699 28.9795 216.699 27.332C216.699 25.6846 215.393 24.3438 213.788 24.3438C212.183 24.3438 210.877 25.6846 210.877 27.332C210.877 28.9795 212.183 30.3203 213.788 30.3203Z" fill="black"/>
<path d="M200.592 42.6719C200.592 41.0244 199.286 39.6836 197.682 39.6836C196.077 39.6836 194.771 41.0244 194.771 42.6719C194.771 44.3193 196.077 45.6602 197.682 45.6602C199.286 45.6602 200.592 44.3193 200.592 42.6719Z" fill="black"/>
<path d="M204.085 35.5C205.69 35.5 206.996 34.1592 206.996 32.5117C206.996 30.8643 205.69 29.5234 204.085 29.5234C202.481 29.5234 201.174 30.8643 201.174 32.5117C201.174 34.1592 202.481 35.5 204.085 35.5Z" fill="black"/>
<path d="M198.264 53.2305C196.659 53.2305 195.353 54.5713 195.353 56.2188C195.353 57.8662 196.659 59.207 198.264 59.207C199.868 59.207 201.175 57.8662 201.175 56.2188C201.175 54.5713 199.868 53.2305 198.264 53.2305Z" fill="black"/>
<path d="M213.206 63.7891C211.601 63.7891 210.295 65.1299 210.295 66.7773C210.295 68.4248 211.601 69.7656 213.206 69.7656C214.81 69.7656 216.116 68.4248 216.116 66.7773C216.116 65.1299 214.81 63.7891 213.206 63.7891Z" fill="black"/>
<path d="M203.309 61.1992C201.704 61.1992 200.398 62.5401 200.398 64.1875C200.398 65.8349 201.704 67.1758 203.309 67.1758C204.914 67.1758 206.22 65.8349 206.22 64.1875C206.22 62.5401 204.914 61.1992 203.309 61.1992Z" fill="black"/>
<path d="M226.207 64.3867C226.207 62.7393 224.901 61.3984 223.296 61.3984C221.692 61.3984 220.386 62.7393 220.386 64.3867C220.386 66.0342 221.692 67.375 223.296 67.375C224.901 67.375 226.207 66.0342 226.207 64.3867Z" fill="black"/>
<path d="M221.55 35.8984C223.155 35.8984 224.461 34.5576 224.461 32.9102C224.461 31.2627 223.155 29.9219 221.55 29.9219C219.945 29.9219 218.639 31.2627 218.639 32.9102C218.639 34.5576 219.945 35.8984 221.55 35.8984Z" fill="black"/>
<path d="M206.604 48.1387C204.999 48.1387 203.693 49.4795 203.693 51.127C203.693 52.7752 204.999 54.1152 206.604 54.1152C208.209 54.1152 209.515 52.7752 209.515 51.127C209.515 49.4795 208.209 48.1387 206.604 48.1387Z" fill="black"/>
<path d="M222.326 52.9316C222.326 51.2842 221.02 49.9434 219.415 49.9434C217.811 49.9434 216.505 51.2842 216.505 52.9316C216.505 54.5791 217.811 55.9199 219.415 55.9199C221.02 55.9199 222.326 54.5791 222.326 52.9316Z" fill="black"/>
<path d="M217.377 41.1777C217.377 39.5303 216.072 38.1895 214.466 38.1895C212.862 38.1895 211.555 39.5303 211.555 41.1777C211.555 42.8252 212.862 44.166 214.466 44.166C216.072 44.166 217.377 42.8252 217.377 41.1777Z" fill="black"/>
</svg>
